# xmcd
# Track frame offsets:
# 150
# 15385
# 30620
# 50206
# 63341
# 79326
# 98609
# 110243
# 123689
# 139524
# 153184
# 169166
# 186276
# 201433
# 217042
# 237003
# 256736
#
# Disc length: 3634 seconds
# Revision: 0
# Processed by: cddbd v1.5.1PL0 Copyright (c) Steve Scherf et al.
# Submitted via: VisiTrax 2.9.10.228 - For more info visit www.synapsa.com
#
DISCID=ef0e3011
DTITLE=Brooks and Dunn - Country Karaoke Classics  CKC005
DYEAR=1900
DGENRE=Karaoke
TTITLE0=Boot Scootin' Boogie
TTITLE1=My Maria
TTITLE2=Neon Moon
TTITLE3=Hard Workin' Man
TTITLE4=She's Not The Cheatin' Kind
TTITLE5=You're Gonna Miss Me When I'm Gone
TTITLE6=Beer Thirty
TTITLE7=Brand New Man
TTITLE8=Every River
TTITLE9=My Heart Is Lost To You
TTITLE10=That Ain't No Way To Go
TTITLE11=Long Goodbye
TTITLE12=Ain't Nothin' Bout You
TTITLE13=Rock My World (Little Country Girl)
TTITLE14=Only In America
TTITLE15=Red Dirt Road
TTITLE16=You Can't Take The Honky Tonk Out Of The
EXTD=
EXTT0=
EXTT1=
EXTT2=
EXTT3=
EXTT4=
EXTT5=
EXTT6=
EXTT7=
EXTT8=
EXTT9=
EXTT10=
EXTT11=
EXTT12=
EXTT13=
EXTT14=
EXTT15=
EXTT16=
PLAYORDER=
